<?xml version="1.0" standalone="no"?>
<!DOCTYPE svg PUBLIC "-//W3C//DTD SVG 20010904//EN"
 "http://www.w3.org/TR/2001/REC-SVG-20010904/DTD/svg10.dtd">
<svg version="1.0" xmlns="http://www.w3.org/2000/svg"
 width="260.000000pt" height="260.000000pt" viewBox="0 0 260.000000 260.000000"
 preserveAspectRatio="xMidYMid meet">
<metadata>
Created by potrace 1.14, written by Peter Selinger 2001-2017
</metadata>
<g transform="translate(0.000000,260.000000) scale(0.100000,-0.100000)"
fill="#000000" stroke="none">
<path d="M607 2533 c-3 -5 -4 -446 -4 -980 l0 -973 549 0 c519 0 548 1 539 17
-5 10 -21 29 -36 43 -71 66 -84 170 -33 268 l26 50 -3 236 -4 237 -26 31 c-15
18 -31 43 -37 57 -13 35 -12 104 2 130 9 18 8 21 -7 22 -10 0 -181 0 -379 -1
l-362 -1 -26 32 c-38 45 -26 100 26 118 43 15 774 15 817 0 18 -6 33 -20 37
-32 5 -22 6 -22 287 -19 154 2 284 5 287 8 2 3 5 176 5 385 l0 379 -827 0
c-455 0 -829 -3 -831 -7z m1024 -412 c27 -2 59 -40 59 -72 0 -42 -15 -65 -47
-76 -16 -5 -206 -9 -424 -8 -353 0 -398 2 -421 17 -52 34 -41 114 18 133 24 8
702 13 815 6z"/>
<path d="M10 2082 c-14 -5 -13 -1354 1 -1407 27 -98 139 -151 254 -120 43 11
85 43 96 74 8 20 15 1105 10 1421 l-1 35 -175 0 c-96 0 -180 -1 -185 -3z"/>
<path d="M1743 1662 c-58 -9 -78 -91 -33 -136 20 -21 29 -21 418 -22 218 0
409 3 423 8 27 9 49 44 49 78 0 10 -11 32 -24 47 l-24 28 -394 0 c-216 0 -403
-1 -415 -3z"/>
<path d="M1784 1442 c-22 -14 -28 -59 -25 -197 8 -354 9 -327 -16 -358 -30
-37 -46 -98 -34 -129 5 -14 22 -36 38 -49 18 -15 71 -106 138 -234 59 -116
131 -254 159 -307 l51 -98 3 300 2 300 -35 36 c-48 48 -49 93 -2 128 45 35 87
42 125 22 38 -20 71 -61 67 -84 -2 -9 -4 -20 -4 -24 -1 -5 -16 -25 -35 -45
l-33 -38 0 -298 c0 -164 3 -295 7 -290 4 4 65 121 135 258 166 325 170 332
216 383 48 51 50 89 6 153 -32 46 -32 51 -23 399 2 78 -1 125 -10 148 l-13 32
-353 0 c-194 0 -358 -4 -364 -8z"/>
</g>
</svg>
