<?xml version="1.0" standalone="no"?>
<!DOCTYPE svg PUBLIC "-//W3C//DTD SVG 20010904//EN"
 "http://www.w3.org/TR/2001/REC-SVG-20010904/DTD/svg10.dtd">
<svg version="1.0" xmlns="http://www.w3.org/2000/svg"
 width="512.000000pt" height="512.000000pt" viewBox="0 0 512.000000 512.000000"
 preserveAspectRatio="xMidYMid meet">
<metadata>
Created by potrace 1.14, written by Peter Selinger 2001-2017
</metadata>
<g transform="translate(0.000000,512.000000) scale(0.100000,-0.100000)"
fill="#000000" stroke="none">
<path d="M2530 5047 c-3 -3 -18 -8 -35 -10 -16 -3 -41 -8 -55 -11 -14 -3 -36
-8 -50 -11 -14 -3 -36 -8 -50 -11 -14 -3 -36 -7 -50 -10 -14 -3 -32 -7 -40 -9
-18 -5 -79 -17 -100 -19 -9 -1 -21 -5 -28 -10 -6 -4 -12 -5 -12 -3 0 2 -26 -2
-57 -10 -32 -8 -67 -16 -78 -17 -11 -2 -20 -4 -20 -5 0 -2 -62 -12 -82 -14 -7
0 -13 -3 -13 -7 0 -3 -8 -6 -17 -6 -10 -1 -36 -4 -58 -9 -22 -4 -49 -9 -60
-10 -11 -2 -21 -4 -22 -5 -5 -4 -57 -15 -113 -24 -14 -3 -26 -5 -27 -7 -2 -1
-7 -3 -13 -4 -5 -1 -11 -3 -12 -5 -2 -1 -12 -3 -23 -5 -19 -2 -69 -12 -105
-20 -8 -2 -15 -4 -15 -5 0 -1 -9 -3 -20 -5 -30 -4 -84 -15 -135 -26 -25 -6
-54 -12 -65 -15 -11 -2 -33 -7 -50 -11 -16 -4 -32 -7 -35 -8 -3 -1 -25 -5 -50
-10 -25 -5 -47 -9 -50 -10 -9 -2 -115 -25 -140 -30 -26 -6 -88 -20 -130 -29
-53 -12 -100 -22 -154 -32 -40 -7 -45 -11 -60 -47 -23 -55 15 -98 97 -111 7
-1 18 -5 25 -9 6 -5 12 -5 12 -1 0 3 7 1 15 -6 8 -7 15 -9 15 -5 0 4 6 3 13
-2 6 -6 20 -9 30 -8 9 2 17 -1 17 -6 0 -6 4 -8 9 -4 5 3 12 1 16 -4 3 -6 11
-8 18 -5 9 3 12 -38 12 -176 0 -99 -4 -180 -8 -180 -5 0 -5 -5 -1 -12 5 -8 9
-342 5 -485 -1 -12 -7 -28 -14 -35 -15 -15 -35 -63 -41 -98 -3 -14 -5 -25 -6
-25 -1 0 -4 -64 -5 -142 -2 -78 -6 -147 -10 -154 -5 -7 -4 -10 2 -6 6 4 9 -17
8 -56 -1 -34 1 -66 4 -72 3 -5 6 -23 7 -40 1 -39 17 -145 28 -194 11 -47 39
-126 53 -148 32 -49 74 -35 106 35 11 26 22 52 24 57 28 107 53 270 47 310 -1
8 1 15 4 15 12 0 5 342 -8 410 -6 35 -21 78 -33 94 -21 30 -22 38 -22 428 0
261 3 398 10 399 5 1 24 2 40 4 27 3 181 -33 248 -57 22 -8 26 -15 21 -32 -21
-76 -25 -106 -30 -226 -4 -115 -4 -115 32 -188 19 -40 33 -80 30 -90 -15 -47
-19 -98 -20 -212 -1 -130 5 -195 30 -327 5 -25 2 -34 -10 -39 -9 -3 -16 -10
-16 -15 0 -6 -9 -19 -20 -31 -11 -12 -20 -28 -20 -35 0 -7 -5 -13 -11 -13 -5
0 -8 -4 -4 -9 3 -5 1 -12 -4 -15 -4 -3 -12 -20 -16 -38 -4 -18 -9 -40 -11 -48
-2 -8 -6 -34 -8 -58 -3 -23 -8 -47 -11 -52 -3 -6 -2 -10 3 -10 5 0 8 -20 7
-45 -1 -25 2 -45 7 -45 5 0 7 -4 4 -8 -7 -11 17 -90 43 -140 26 -52 84 -110
116 -118 15 -4 27 -15 29 -28 6 -33 26 -129 31 -151 2 -11 8 -35 14 -52 5 -18
7 -33 4 -33 -3 0 -1 -6 4 -12 11 -14 27 -68 25 -80 -1 -5 3 -8 8 -8 6 0 10 -6
8 -13 -1 -6 4 -23 12 -37 7 -14 13 -27 13 -30 -1 -9 32 -75 40 -81 5 -3 9 -13
11 -21 1 -8 22 -46 46 -84 25 -38 47 -73 49 -79 14 -36 175 -206 262 -278 32
-26 46 -44 45 -60 -1 -12 2 -28 7 -34 6 -9 5 -13 -3 -13 -9 0 -10 -3 -1 -13 6
-8 8 -17 4 -20 -9 -9 -11 -57 -2 -57 7 0 3 -49 -5 -57 -3 -4 -1 -12 5 -20 7
-8 7 -13 2 -13 -7 0 -7 -15 -3 -40 4 -23 5 -39 3 -36 -2 2 -17 1 -33 -4 -18
-5 -32 -4 -39 3 -6 6 -11 7 -11 2 0 -6 -106 -10 -268 -11 -267 -1 -322 -3
-322 -14 0 -3 -12 -5 -27 -4 -16 0 -43 -5 -60 -13 -18 -7 -34 -13 -35 -12 -7
2 -69 -25 -123 -53 -92 -48 -180 -118 -258 -207 -31 -36 -95 -132 -104 -159
-3 -9 -13 -25 -21 -34 -8 -10 -12 -18 -7 -18 4 0 2 -7 -5 -15 -7 -8 -10 -15
-7 -15 3 0 0 -15 -8 -34 -8 -18 -11 -36 -8 -40 4 -3 2 -6 -4 -6 -5 0 -10 -6
-10 -12 0 -7 -4 -29 -8 -48 -13 -60 -19 -214 -16 -397 l1 -53 1990 0 1990 0 1
38 c4 244 -4 397 -22 418 -9 11 -8 14 1 14 9 0 9 4 2 13 -6 6 -11 17 -11 22
-2 22 -35 111 -47 130 -8 11 -14 27 -14 37 0 10 -4 18 -10 18 -5 0 -12 11 -16
25 -3 14 -10 25 -15 25 -5 0 -9 5 -9 11 0 12 -68 98 -111 139 -42 41 -88 80
-95 80 -3 0 -12 6 -19 12 -35 32 -45 38 -60 38 -8 0 -15 4 -15 8 0 5 -17 15
-37 24 -181 78 -227 85 -587 86 -238 0 -300 3 -307 13 -4 8 -5 17 0 22 4 4 5
26 1 48 -5 24 -3 39 3 39 5 0 4 6 -2 14 -7 8 -8 17 -3 20 5 3 6 23 2 46 -4 22
-4 40 0 40 4 0 7 7 7 15 0 8 -5 15 -10 15 -5 0 -5 6 1 13 6 7 9 22 6 33 -4 14
3 24 25 37 56 33 237 221 281 292 12 20 29 42 37 50 8 8 12 15 8 15 -4 0 3 12
14 26 11 15 18 30 15 35 -3 5 -1 9 4 9 5 0 19 24 33 53 13 28 28 55 33 58 5 4
9 15 11 25 1 11 9 36 18 56 9 21 19 48 21 60 3 13 5 25 6 28 2 3 2 8 1 12 0 5
4 8 10 8 5 0 7 5 4 10 -3 6 -3 16 1 22 5 7 9 19 10 28 2 8 7 34 13 58 10 36
15 66 25 131 2 7 16 19 33 26 16 7 43 26 60 42 32 32 86 133 91 173 2 13 9 28
15 32 9 6 9 8 -1 8 -9 0 -10 5 -4 18 23 44 -6 264 -41 310 -5 6 -6 12 -1 12 5
0 4 4 -2 8 -6 4 -24 27 -41 52 -23 34 -28 51 -23 70 31 111 30 407 -1 511 -11
34 -9 40 20 83 18 25 29 46 25 46 -3 0 0 7 7 16 29 35 19 259 -17 381 -4 15
-2 24 7 27 8 2 39 12 69 21 30 9 63 19 74 21 10 2 44 11 75 21 31 9 67 18 80
19 13 2 28 9 32 16 4 7 11 10 14 6 4 -4 24 0 46 7 21 8 39 12 39 9 0 -2 9 0
21 6 11 6 29 13 40 16 10 2 29 7 42 10 12 3 34 8 50 11 15 3 27 9 27 14 0 5 3
8 8 7 17 -5 86 15 99 28 8 8 18 27 23 43 12 43 -21 75 -91 90 -139 31 -341 74
-404 86 -38 8 -79 16 -90 19 -11 2 -62 14 -113 25 -51 12 -109 24 -129 27 -20
3 -47 10 -60 15 -13 5 -23 7 -23 4 0 -2 -14 0 -32 5 -17 5 -49 12 -72 16 -22
3 -44 8 -48 11 -5 2 -21 6 -36 9 -15 2 -58 11 -97 20 -38 9 -81 18 -95 20 -14
3 -41 9 -60 14 -19 5 -50 10 -67 12 -18 1 -33 5 -33 8 0 4 -6 7 -12 7 -18 1
-83 11 -83 13 0 1 -7 3 -15 5 -8 1 -71 15 -140 30 -69 14 -136 29 -150 31 -14
3 -40 9 -59 14 -19 5 -38 7 -42 4 -4 -2 -10 0 -14 6 -3 5 -16 10 -28 10 -12 0
-38 2 -57 6 -19 3 -37 3 -40 1z"/>
</g>
</svg>
